<?xml version="1.0" encoding="utf-8"?>
<!-- Generator: Adobe Illustrator 18.0.0, SVG Export Plug-In . SVG Version: 6.00 Build 0)  -->
<!DOCTYPE svg PUBLIC "-//W3C//DTD SVG 1.1//EN" "http://www.w3.org/Graphics/SVG/1.1/DTD/svg11.dtd">
<svg version="1.1" id="Layer_1" xmlns="http://www.w3.org/2000/svg" xmlns:xlink="http://www.w3.org/1999/xlink" x="0px" y="0px"
	 viewBox="0 0 300 100" enable-background="new 0 0 300 100" xml:space="preserve">
<g display="none">
	<g display="inline">
		<path fill="#151632" d="M86.5,37.6v30.5H77V37.6H64.5v-8.3h34.6v8.3H86.5z"/>
		<path fill="#151632" d="M132.7,50.3v17.8h-9.2V52.2c0-3.4-2-5.7-5-5.7c-3.6,0-6,2.5-6,8.1v13.5h-9.3V26.4h9.3v15.4
			c2.3-2.3,5.3-3.6,9-3.6C128.2,38.2,132.7,43,132.7,50.3z"/>
		<path fill="#151632" d="M171,55.9h-21.3c0.8,3.5,3.1,5.6,6.3,5.6c2.1,0,4.6-0.5,6.2-3.4l8.2,1.7C167.9,66,162.6,69,156,69
			c-8.4,0-15.3-6.2-15.3-15.4c0-9.2,6.9-15.4,15.4-15.4c8.2,0,14.8,5.9,15,15.4V55.9z M149.9,50.3h12c-0.9-3.1-3.2-4.6-5.8-4.6
			C153.4,45.7,150.8,47.3,149.9,50.3z"/>
		<path fill="#F3D02F" d="M211.9,68.1h-9.5V52.8h-16.3v15.3h-9.6V29.3h9.6v15.1h16.3V29.3h9.5V68.1z"/>
		<path fill="#F3D02F" d="M227.2,30.5c0,3-2.3,5.2-5.4,5.2c-3.1,0-5.3-2.2-5.3-5.2c0-2.8,2.2-5.3,5.3-5.3
			C224.9,25.2,227.2,27.6,227.2,30.5z M217.1,68.1V39h9.3v29.1H217.1z"/>
		<path fill="#F3D02F" d="M250.1,68.1h-9.4l-12-29.1h9.8l7,18l6.9-18h9.8L250.1,68.1z"/>
		<path fill="#F3D02F" d="M291.3,55.9H270c0.8,3.5,3.1,5.6,6.3,5.6c2.1,0,4.6-0.5,6.2-3.4l8.2,1.7c-2.5,6.1-7.8,9.1-14.4,9.1
			c-8.4,0-15.3-6.2-15.3-15.4c0-9.2,7-15.4,15.4-15.4c8.2,0,14.8,5.9,15,15.4V55.9z M270.1,50.3h12c-0.9-3.1-3.2-4.6-5.8-4.6
			C273.7,45.7,271,47.3,270.1,50.3z"/>
	</g>
	<g display="inline">
		<g>
			<path fill="#F3D02F" d="M33.7,36.4c3,0,5.6,2.9,5.6,5.3c0,2.8-4.6,3-5.5,3l0,0c-1,0-5.5-0.1-5.5-3C28,39.3,30.6,36.4,33.7,36.4
				L33.7,36.4z M27.7,65.5l11.6,0l1,2.6l-13.6,0L27.7,65.5z M29.3,61.8l1-2.6l6.5,0l1,2.6L29.3,61.8z M31.8,55.6l1.8-4.4l1.8,4.4
				L31.8,55.6z M18.2,70.1c-0.8,0-1.5-0.1-2.1-0.5c-2.8-1.2-4.2-4.5-3-7.3c3.2-7.6,12.7-13.1,17.9-13.9l-3.4,8.3l0,0L25,62.9l0,0
				l-1.6,3.7C22.4,68.7,20.4,70.1,18.2,70.1L18.2,70.1z M33.5,78.4c-3.7,0-6.7-2.7-7.9-6.9l15.9,0.1C40.3,75.9,37.2,78.4,33.5,78.4
				L33.5,78.4z M51.1,69.7c-0.7,0.3-1.5,0.4-2.1,0.4c-2.2,0-4.3-1.4-5.2-3.5L42.2,63l0,0l-2.3-5.8c0-0.2-0.1-0.5-0.2-0.7l-3.2-8.1
				c5.2,0.9,14.7,6.4,17.8,14C55.3,65.4,54,68.6,51.1,69.7L51.1,69.7z"/>
			
				<line fill="none" stroke="#F3D02F" stroke-width="2.3936" stroke-linecap="round" stroke-miterlimit="10" x1="29.4" y1="35.1" x2="27.5" y2="31.2"/>
			
				<line fill="none" stroke="#F3D02F" stroke-width="2.3936" stroke-linecap="round" stroke-miterlimit="10" x1="37.8" y1="35.1" x2="39.7" y2="31.2"/>
		</g>
		
			<polyline fill="none" stroke="#F3D02F" stroke-width="2.3936" stroke-linecap="round" stroke-linejoin="round" stroke-miterlimit="10" points="
			51,51.6 55.9,42.8 44.7,23.5 22.5,23.5 11.3,42.8 16.6,51.6 		"/>
	</g>
</g>
<g>
	<g>
		<path fill="#151632" d="M116.7,63.3c-4.3,5.9-11.3,9.7-19.2,9.7c-13.1,0-23.8-10.6-23.8-23.7c0-13.1,10.6-23.8,23.8-23.8
			c7.8,0,14.9,3.8,19.2,9.7l-8.2,5.3c-3.1-2.8-6.5-4.6-11-4.6c-7.4,0-13.3,6-13.3,13.4c0,7.4,6,13.3,13.3,13.3c4.5,0,7.4-1.5,11-4.5
			L116.7,63.3z"/>
		<path fill="#55C4C3" d="M156.2,54.1c0,2.6-0.6,5.1-1.5,7.4c-1,2.3-2.4,4.3-4.1,6c-1.7,1.8-3.8,3.1-6,4.1c-2.4,1-4.9,1.5-7.4,1.5
			c-2.6,0-5.1-0.5-7.4-1.5c-2.3-1-4.3-2.4-6.1-4.1c-1.7-1.7-3.1-3.8-4.1-6c-1-2.4-1.5-4.9-1.5-7.4c-0.1-2.6,0.5-5.1,1.5-7.4
			c1-2.3,2.4-4.4,4.1-6.1c1.7-1.7,3.7-3.1,6-4.1c2.4-1,4.9-1.5,7.4-1.5c2.6,0,5.1,0.5,7.4,1.5c2.3,0.9,4.3,2.3,6.1,4
			c1.7,1.8,3.1,3.8,4.1,6.1C155.6,49,156.1,51.5,156.2,54.1z M146.7,54.1c0-5.3-4.3-9.6-9.7-9.6c-5.3,0-9.6,4.3-9.6,9.6
			c0,5.3,4.3,9.7,9.7,9.7C142.3,63.7,146.7,59.4,146.7,54.1z"/>
		<path fill="#151632" d="M182.6,35.5v9.1c-0.7-0.1-1.5-0.2-2.2-0.2c-5.1,0-9.6,4-9.6,10.9c0,4.6,0,16.5,0,16.5h-10.7V36.1h10.7v4.2
			c0.5-1.2,2.4-5.2,8.5-5.2C180.4,35.1,181.6,35.2,182.6,35.5z"/>
		<path fill="#151632" d="M201.7,44.2c0,5.4,0,8.3,0,11.5c0,7,2.8,6.9,6.7,7v9.7c-13.4,2.4-17.9-4.5-17.9-13.1c0-3.9,0-8.3,0-15.1
			h-5.3V36h5.3V22.7h11.2V36h9.7v8.2H201.7z"/>
		<path fill="#151632" d="M249.4,64.9c-4,4.6-8.8,8.1-15.6,8.1c-9.8,0-17.9-7.3-19-17c-1.2-10.9,7.6-21.2,19-21.2
			c11.9,0,19.2,11.7,17.3,22.8h-26.6c1.5,3.7,5.1,6.3,9.2,6.3c2.9,0,5.6-1.3,7.8-3.8L249.4,64.9z M224.5,50.8h17.7
			c0-3.8-4.3-6.9-8.4-6.9C228.8,43.9,224.5,47.2,224.5,50.8z"/>
		<path fill="#151632" d="M290.3,66l-6.8,6.9l-12.1-12.2l-12.2,12.1l-6.8-6.8l12.2-12.3l-12.2-12.1l6.8-6.9l12.3,12.1l12-12.2
			l6.9,6.8l-12.1,12.3L290.3,66z"/>
	</g>
	<g>
		<path fill="#55C4C3" d="M66.3,51.1c0-4.4-2.2-4.9-6.2-5.3c-3.5-0.4-7.5-0.8-9.2-5.7c-0.1-0.2,0-0.3,0-0.5c0.1-0.2,0.2-0.3,0.4-0.3
			c0.3-0.1,0.7,0.1,0.8,0.4c1.5,4.2,4.8,4.5,8.1,4.9c1.6,0.2,3.4,0.4,4.9,1.2c0.2,0.1,0.3,0.1,0.5,0c0.2-0.1,0.2-0.3,0.2-0.4
			c-0.8-8.9-4.5-13.4-7.6-15.6c-1.7-1.2-3.2-1.8-4.2-2c-0.2,0-0.4,0-0.5,0.2c-0.1,0.2-0.1,0.4,0,0.5c0.6,1.2,1,2.5,1.4,3.8
			c0.8,2.7,1.4,5.1,4.4,5.7c0.2,0,0.3,0.1,0.4,0.3c0.1,0.1,0.1,0.3,0.1,0.5c-0.1,0.3-0.3,0.5-0.7,0.5c0,0-0.1,0-0.1,0
			c-3.8-0.7-4.6-3.7-5.4-6.6c-0.5-1.9-1-3.8-2.4-4.9c-1.9-1.6-5.2-2.7-8.1-2.7c-0.5,0-1,0-1.4,0.1c-0.9,0.1-2.3,0.5-3.3,1.4
			c-0.1,0.1-0.2,0.2-0.2,0.3c0,0.1,0,0.3,0.1,0.4c1.4,1.5,2.7,3.5,3.8,5.8c0.2,0.3,0,0.7-0.3,0.9c-0.3,0.2-0.7,0-0.9-0.3
			c-1.3-2.7-2.8-4.8-4.3-6.3c0,0,0,0,0,0c0,0,0,0,0,0c-2.2-2.1-4.1-2.5-5.4-2.5c-0.3,0-0.7,0-1,0.1c-1.8,0.3-2.9,1.5-3.3,2.4
			c-0.1,0.1,0,0.3,0,0.4c0.4,0.6,0.7,1.4,0.9,2.1c0.8,2.2,1.6,4.3,5.3,4.5c0.2,0,0.3,0.1,0.5,0.2c0.1,0.1,0.2,0.3,0.2,0.5
			c0,0.4-0.3,0.6-0.7,0.6h0c-4.7-0.2-5.7-3.1-6.5-5.3c-0.3-0.9-0.6-1.5-0.9-2c0,0,0,0,0-0.1c0,0-0.1-0.1-0.1-0.1c0,0,0-0.1-0.1-0.1
			c-0.4-0.5-0.9-0.7-1.6-0.7c-1.6,0-2.8,0.5-3.7,1.5c-0.3,0.4-0.5,0.8-0.7,1.3c0,0,0,0.1,0,0.1c0,0.1,0,0.1-0.1,0.2c0,0,0,0,0,0.1
			c-0.4,1.2-0.4,2.8-0.1,4.2c0.6,2.6,2.2,5.8,6.7,6.6c0.4,0.1,0.9,0.1,1.4,0.1c1,0,2.2-0.2,3.4-0.3c1.2-0.2,2.7-0.4,4.1-0.4
			c2.2,0,4.1,0.5,5.9,1.5c0.1,0.1,0.3,0.1,0.4,0c0.1,0,0.2-0.1,0.3-0.3c0.8-2,2-3.3,2.9-4.3c1.9-2.1,3.3-3.6,1.3-8.9
			c-0.1-0.2-0.1-0.3,0-0.5c0.1-0.2,0.2-0.3,0.4-0.3c0.3-0.1,0.7,0.1,0.9,0.4c2.3,6,0.5,8-1.6,10.2c-1,1.1-2.2,2.4-2.9,4.4
			c-0.1,0.2,0,0.4,0.2,0.5c4.6,3.4,7.1,4.5,9.6,4.5c0.3,0,0.6,0,1-0.1c0.4,0,0.7,0.2,0.7,0.6c0,0.2,0,0.3-0.1,0.5
			c-0.1,0.1-0.3,0.2-0.4,0.2c-0.4,0-0.8,0.1-1.1,0.1c-2.9,0-5.7-1.3-11-5.2c-1.9-1.4-3.9-2-6.3-2c-1.4,0-2.7,0.2-4,0.4
			c-1.2,0.2-2.4,0.3-3.6,0.3c-0.6,0-1.1,0-1.6-0.1c-4.1-0.7-6.8-3.5-7.7-7.7c-0.1-0.4-0.2-1.2-0.2-2.2c0-0.2-0.1-0.4-0.3-0.4
			c-0.2-0.1-0.4,0-0.5,0.1c-3.8,3.5-4,7-3.8,8.8c0.3,2.8,2,4.9,3.5,5.5c0.5,0.2,1,0.3,1.7,0.3c0.7,0,1.3-0.1,2.1-0.2
			c0.9-0.1,1.8-0.2,2.9-0.2c2.9,0,5.6,1,8.5,3.1c0.3,0.2,0.4,0.6,0.1,0.9c-0.2,0.3-0.6,0.4-0.9,0.1c-2.6-1.9-5.1-2.8-7.7-2.8
			c-1,0-1.9,0.1-2.8,0.2c-0.8,0.1-1.6,0.2-2.3,0.2c-0.8,0-1.5-0.1-2.2-0.4c-1.9-0.7-3.5-2.8-4.1-5.3c-0.1-0.2-0.2-0.3-0.4-0.4
			c-0.2,0-0.4,0.1-0.5,0.3c-1.8,3.9-0.8,7.9,1,10c1.3,1.6,3.1,2.5,5.1,2.5c1.5,0,3-0.4,4.5-1.3c0.1-0.1,0.2-0.2,0.2-0.3
			c0.2-0.9,0.6-1.7,1-2.4c0.2-0.3,0.6-0.4,0.9-0.2c0.2,0.1,0.3,0.2,0.3,0.4c0,0.2,0,0.3-0.1,0.5c-1.3,2.1-1.7,5.8,0.2,8.5
			c1.4,2,3.8,3,7.1,3c0.3,0,0.6,0,0.9,0c0.2,0,0.3-0.1,0.4-0.3c0.1-0.2,0.1-0.4-0.1-0.5c-1.7-2.2,0.2-4.6,2-6.9
			c1.8-2.3,3.7-4.7,2.9-7.3c-0.1-0.4,0.1-0.7,0.5-0.8c0.3-0.1,0.7,0.1,0.8,0.5c0.9,3.3-1.3,6.2-3.2,8.5c-2,2.6-3.1,4.2-1.7,5.7
			c0.6,0.6,1.1,0.8,1.7,0.8c0.9,0,2-0.6,4.2-1.9c1.8-1.1,4.3-2.6,7.5-3.6c0.2-0.1,0.3-0.2,0.3-0.4c0-0.2-0.1-0.4-0.3-0.5
			c-0.9-0.4-1.6-1-2.1-1.6c-0.8-1.1-1-2.4-0.7-3.9c0.1-0.3,0.5-0.6,0.8-0.5c0.4,0.1,0.6,0.5,0.5,0.8c-0.3,1.1-0.1,2,0.4,2.7
			c0.7,0.9,2.5,2.1,7.1,2.4c0.8,0,1.5,0,2.3,0.1c2.3,0,4.8-0.5,6.7-1.2c0.1-0.1,0.3-0.2,0.3-0.3c0-0.2,0-0.3-0.1-0.4
			c-0.4-0.5-1.1-0.8-1.9-1.2c-1.3-0.6-2.9-1.3-3.2-3.5c0-0.4,0.2-0.7,0.6-0.7c0.4,0,0.7,0.2,0.7,0.6c0.1,1.5,1.1,1.9,2.4,2.4
			c0.9,0.4,2,0.8,2.7,1.8c0.1,0.1,0.2,0.2,0.3,0.2c0.1,0,0.3,0,0.4-0.1C65.8,53.2,66.3,52.2,66.3,51.1z"/>
		<g>
			<path fill="#55C4C3" d="M55.6,57.4c-0.4,0-0.7,0-1.1-0.1c-6,0.1-10,2.5-12.9,4.3c-1,0.6-2,1.2-2.9,1.6c-0.2,0.1-0.3,0.2-0.3,0.4
				c0,0.2,0.1,0.4,0.2,0.5c0.5,0.3,1.1,0.6,1.6,0.8c0.7,0.3,1.3,0.4,1.9,0.5c1.7,0.3,3.1,0.5,3.7,5.3c0,0.2,0.2,0.4,0.5,0.4h3.4
				c0.1,0,0.3-0.1,0.4-0.2c0.1-0.1,0.1-0.2,0.1-0.4c-0.7-4.8-0.1-5.1,1.3-5.9c0.4-0.3,1-0.5,1.5-1c1.3-1.1,2.7-2.3,3.1-5.8
				c0-0.1,0-0.3-0.1-0.4C55.8,57.5,55.7,57.4,55.6,57.4z"/>
		</g>
	</g>
</g>
</svg>
