<?xml version="1.0" encoding="utf-8"?>
<!-- Generator: Adobe Illustrator 18.0.0, SVG Export Plug-In . SVG Version: 6.00 Build 0)  -->
<!DOCTYPE svg PUBLIC "-//W3C//DTD SVG 1.1//EN" "http://www.w3.org/Graphics/SVG/1.1/DTD/svg11.dtd">
<svg version="1.1" id="Layer_1" xmlns="http://www.w3.org/2000/svg" xmlns:xlink="http://www.w3.org/1999/xlink" x="0px" y="0px"
	 viewBox="0 0 300 100" enable-background="new 0 0 300 100" xml:space="preserve">
<g>
	<g>
		<path fill="#151632" d="M86.5,37.6v30.5H77V37.6H64.5v-8.3h34.6v8.3H86.5z"/>
		<path fill="#151632" d="M132.7,50.3v17.8h-9.2V52.2c0-3.4-2-5.7-5-5.7c-3.6,0-6,2.5-6,8.1v13.5h-9.3V26.4h9.3v15.4
			c2.3-2.3,5.3-3.6,9-3.6C128.2,38.2,132.7,43,132.7,50.3z"/>
		<path fill="#151632" d="M171,55.9h-21.3c0.8,3.5,3.1,5.6,6.3,5.6c2.1,0,4.6-0.5,6.2-3.4l8.2,1.7C167.9,66,162.6,69,156,69
			c-8.4,0-15.3-6.2-15.3-15.4c0-9.2,6.9-15.4,15.4-15.4c8.2,0,14.8,5.9,15,15.4V55.9z M149.9,50.3h12c-0.9-3.1-3.2-4.6-5.8-4.6
			C153.4,45.7,150.8,47.3,149.9,50.3z"/>
		<path fill="#F3D02F" d="M211.9,68.1h-9.5V52.8h-16.3v15.3h-9.6V29.3h9.6v15.1h16.3V29.3h9.5V68.1z"/>
		<path fill="#F3D02F" d="M227.2,30.5c0,3-2.3,5.2-5.4,5.2c-3.1,0-5.3-2.2-5.3-5.2c0-2.8,2.2-5.3,5.3-5.3
			C224.9,25.2,227.2,27.6,227.2,30.5z M217.1,68.1V39h9.3v29.1H217.1z"/>
		<path fill="#F3D02F" d="M250.1,68.1h-9.4l-12-29.1h9.8l7,18l6.9-18h9.8L250.1,68.1z"/>
		<path fill="#F3D02F" d="M291.3,55.9H270c0.8,3.5,3.1,5.6,6.3,5.6c2.1,0,4.6-0.5,6.2-3.4l8.2,1.7c-2.5,6.1-7.8,9.1-14.4,9.1
			c-8.4,0-15.3-6.2-15.3-15.4c0-9.2,7-15.4,15.4-15.4c8.2,0,14.8,5.9,15,15.4V55.9z M270.1,50.3h12c-0.9-3.1-3.2-4.6-5.8-4.6
			C273.7,45.7,271,47.3,270.1,50.3z"/>
	</g>
	<g>
		<g>
			<path fill="#F3D02F" d="M33.7,36.4c3,0,5.6,2.9,5.6,5.3c0,2.8-4.6,3-5.5,3l0,0c-1,0-5.5-0.1-5.5-3C28,39.3,30.6,36.4,33.7,36.4
				L33.7,36.4z M27.7,65.5l11.6,0l1,2.6l-13.6,0L27.7,65.5z M29.3,61.8l1-2.6l6.5,0l1,2.6L29.3,61.8z M31.8,55.6l1.8-4.4l1.8,4.4
				L31.8,55.6z M18.2,70.1c-0.8,0-1.5-0.1-2.1-0.5c-2.8-1.2-4.2-4.5-3-7.3c3.2-7.6,12.7-13.1,17.9-13.9l-3.4,8.3l0,0L25,62.9l0,0
				l-1.6,3.7C22.4,68.7,20.4,70.1,18.2,70.1L18.2,70.1z M33.5,78.4c-3.7,0-6.7-2.7-7.9-6.9l15.9,0.1C40.3,75.9,37.2,78.4,33.5,78.4
				L33.5,78.4z M51.1,69.7c-0.7,0.3-1.5,0.4-2.1,0.4c-2.2,0-4.3-1.4-5.2-3.5L42.2,63l0,0l-2.3-5.8c0-0.2-0.1-0.5-0.2-0.7l-3.2-8.1
				c5.2,0.9,14.7,6.4,17.8,14C55.3,65.4,54,68.6,51.1,69.7L51.1,69.7z"/>
			
				<line fill="none" stroke="#F3D02F" stroke-width="2.3936" stroke-linecap="round" stroke-miterlimit="10" x1="29.4" y1="35.1" x2="27.5" y2="31.2"/>
			
				<line fill="none" stroke="#F3D02F" stroke-width="2.3936" stroke-linecap="round" stroke-miterlimit="10" x1="37.8" y1="35.1" x2="39.7" y2="31.2"/>
		</g>
		
			<polyline fill="none" stroke="#F3D02F" stroke-width="2.3936" stroke-linecap="round" stroke-linejoin="round" stroke-miterlimit="10" points="
			51,51.6 55.9,42.8 44.7,23.5 22.5,23.5 11.3,42.8 16.6,51.6 		"/>
	</g>
</g>
</svg>
